<?xml version="1.0" standalone="no"?><!DOCTYPE svg PUBLIC "-//W3C//DTD SVG 1.1//EN" "http://www.w3.org/Graphics/SVG/1.1/DTD/svg11.dtd" ><svg xmlns="http://www.w3.org/2000/svg"><metadata></metadata><defs><font id="CraftronGaming:Minecraft" horiz-adv-x="1024"><font-face font-family="Minecraft" font-weight="500" font-stretch="normal" units-per-em="1024" panose-1="2 0 6 3 0 0 0 0 0 0" ascent="768" descent="-256" x-height="0" bbox="0 -256 896 768" underline-thickness="51" underline-position="-128" unicode-range="U+0020-3000" /><missing-glyph horiz-adv-x="374" d="M34 0 l0 682 l272 0 l0 -682 l-272 0 ZM68 34 l204 0 l0 614 l-204 0 l0 -614 Z" /><glyph glyph-name=".null" unicode="" d="" /><glyph glyph-name="nonmarkingreturn" unicode="" d="" /><glyph glyph-name="space" unicode=" " d="" /><glyph glyph-name="exclam" unicode="!" d="M64 0 l-64 0 l0 64 l0 64 l64 0 l64 0 l0 -64 l0 -64 l-64 0 ZM64 192 l-64 0 l0 64 l0 64 l0 64 l0 64 l0 64 l0 64 l0 64 l0 64 l0 64 l64 0 l64 0 l0 -64 l0 -64 l0 -64 l0 -64 l0 -64 l0 -64 l0 -64 l0 -64 l0 -64 l-64 0 Z" /><glyph glyph-name="quotedbl" unicode="&quot;" d="M320 384 l-64 0 l0 64 l0 64 l64 0 l64 0 l0 -64 l0 -64 l-64 0 ZM64 384 l-64 0 l0 64 l0 64 l64 0 l64 0 l0 -64 l0 -64 l-64 0 ZM384 512 l0 64 l0 64 l0 64 l0 64 l64 0 l64 0 l0 -64 l0 -64 l0 -64 l0 -64 l-64 0 l-64 0 ZM256 512 l-64 0 l-64 0 l0 64 l0 64 l0 64 l0 64 l64 0 l64 0 l0 -64 l0 -64 l0 -64 l0 -64 Z" /><glyph glyph-name="numbersign" unicode="#" d="M448 0 l-64 0 l0 64 l0 64 l0 64 l-64 0 l-64 0 l0 -64 l0 -64 l0 -64 l-64 0 l-64 0 l0 64 l0 64 l0 64 l-64 0 l-64 0 l0 64 l0 64 l64 0 l64 0 l0 64 l0 64 l-64 0 l-64 0 l0 64 l0 64 l64 0 l64 0 l0 64 l0 64 l0 64 l64 0 l64 0 l0 -64 l0 -64 l0 -64 l64 0 l64 0 l0 64 l0 64 l0 64 l64 0 l64 0 l0 -64 l0 -64 l0 -64 l64 0 l64 0 l0 -64 l0 -64 l-64 0 l-64 0 l0 -64 l0 -64 l64 0 l64 0 l0 -64 l0 -64 l-64 0 l-64 0 l0 -64 l0 -64 l0 -64 l-64 0 ZM320 320 l64 0 l0 64 l0 64 l-64 0 l-64 0 l0 -64 l0 -64 l64 0 Z" /><glyph glyph-name="dollar" unicode="$" d="M320 -128 l-64 0 l0 64 l0 64 l-64 0 l-64 0 l-64 0 l-64 0 l0 64 l0 64 l64 0 l64 0 l64 0 l64 0 l0 64 l0 64 l64 0 l64 0 l0 -64 l0 -64 l64 0 l64 0 l0 -64 l0 -64 l-64 0 l-64 0 l0 -64 l0 -64 l-64 0 ZM256 256 l-64 0 l-64 0 l0 64 l0 64 l64 0 l64 0 l0 -64 l0 -64 ZM128 384 l-64 0 l-64 0 l0 64 l0 64 l64 0 l64 0 l0 -64 l0 -64 ZM448 512 l-64 0 l-64 0 l-64 0 l-64 0 l-64 0 l0 64 l0 64 l64 0 l64 0 l0 64 l0 64 l64 0 l64 0 l0 -64 l0 -64 l64 0 l64 0 l0 -64 l0 -64 l-64 0 Z" /><glyph glyph-name="percent" unicode="%" d="M192 0 l0 64 l64 0 l0 -64 l-64 0 ZM704 64 l64 0 l0 -64 l-64 0 l-64 0 l0 64 l64 0 ZM768 64 l0 64 l0 64 l0 64 l0 64 l64 0 l0 -64 l0 -64 l0 -64 l0 -64 l-64 0 ZM640 64 l-64 0 l0 64 l0 64 l0 64 l0 64 l64 0 l0 -64 l0 -64 l0 -64 l0 -64 ZM256 64 l0 64 l0 64 l64 0 l0 -64 l0 -64 l-64 0 ZM320 192 l0 64 l64 0 l0 -64 l-64 0 ZM384 256 l0 64 l0 64 l64 0 l0 -64 l0 -64 l-64 0 ZM768 320 l-64 0 l-64 0 l0 64 l64 0 l64 0 l0 -64 ZM448 384 l0 64 l64 0 l0 -64 l-64 0 ZM192 448 l64 0 l0 -64 l-64 0 l-64 0 l0 64 l64 0 ZM512 448 l0 64 l0 64 l64 0 l0 -64 l0 -64 l-64 0 ZM256 448 l0 64 l0 64 l0 64 l0 64 l64 0 l0 -64 l0 -64 l0 -64 l0 -64 l-64 0 ZM128 448 l-64 0 l0 64 l0 64 l0 64 l0 64 l64 0 l0 -64 l0 -64 l0 -64 l0 -64 ZM576 576 l0 64 l64 0 l0 -64 l-64 0 ZM640 640 l0 64 l0 64 l64 0 l0 -64 l0 -64 l-64 0 ZM256 704 l-64 0 l-64 0 l0 64 l64 0 l64 0 l0 -64 Z" /><glyph glyph-name="ampersand" unicode="&amp;" d="M576 0 l-64 0 l0 64 l0 64 l64 0 l64 0 l0 -64 l0 -64 l-64 0 ZM320 0 l-64 0 l-64 0 l-64 0 l0 64 l0 64 l64 0 l64 0 l64 0 l64 0 l0 -64 l0 -64 l-64 0 ZM512 128 l-64 0 l-64 0 l0 64 l0 64 l0 64 l0 64 l64 0 l64 0 l0 -64 l0 -64 l0 -64 l0 -64 ZM128 128 l-64 0 l-64 0 l0 64 l0 64 l0 64 l0 64 l64 0 l64 0 l0 -64 l0 -64 l0 -64 l0 -64 ZM512 384 l0 64 l0 64 l64 0 l64 0 l0 -64 l0 -64 l-64 0 l-64 0 ZM384 384 l-64 0 l-64 0 l-64 0 l-64 0 l0 64 l0 64 l0 64 l0 64 l64 0 l64 0 l0 -64 l0 -64 l64 0 l64 0 l0 -64 l0 -64 ZM512 512 l-64 0 l-64 0 l0 64 l0 64 l64 0 l64 0 l0 -64 l0 -64 ZM384 640 l-64 0 l-64 0 l0 64 l0 64 l64 0 l64 0 l0 -64 l0 -64 Z" /><glyph glyph-name="quotesingle" unicode="&#39;" d="M64 512 l-64 0 l0 64 l0 64 l0 64 l0 64 l64 0 l64 0 l0 -64 l0 -64 l0 -64 l0 -64 l-64 0 Z" /><glyph glyph-name="parenleft" unicode="(" d="M320 0 l-64 0 l-64 0 l-64 0 l0 64 l0 64 l64 0 l64 0 l64 0 l64 0 l0 -64 l0 -64 l-64 0 ZM128 128 l-64 0 l-64 0 l0 64 l0 64 l0 64 l0 64 l0 64 l0 64 l0 64 l0 64 l64 0 l64 0 l0 -64 l0 -64 l0 -64 l0 -64 l0 -64 l0 -64 l0 -64 l0 -64 ZM320 640 l-64 0 l-64 0 l-64 0 l0 64 l0 64 l64 0 l64 0 l64 0 l64 0 l0 -64 l0 -64 l-64 0 Z" /><glyph glyph-name="parenright" unicode=")" d="M192 0 l-64 0 l-64 0 l-64 0 l0 64 l0 64 l64 0 l64 0 l64 0 l64 0 l0 -64 l0 -64 l-64 0 ZM256 128 l0 64 l0 64 l0 64 l0 64 l0 64 l0 64 l0 64 l0 64 l64 0 l64 0 l0 -64 l0 -64 l0 -64 l0 -64 l0 -64 l0 -64 l0 -64 l0 -64 l-64 0 l-64 0 ZM256 640 l-64 0 l-64 0 l-64 0 l-64 0 l0 64 l0 64 l64 0 l64 0 l64 0 l64 0 l0 -64 l0 -64 Z" /><glyph glyph-name="asterisk" unicode="*" d="M320 384 l-64 0 l0 64 l0 64 l-64 0 l-64 0 l0 -64 l0 -64 l-64 0 l-64 0 l0 64 l0 64 l64 0 l0 64 l0 64 l-64 0 l0 64 l0 64 l64 0 l64 0 l0 -64 l0 -64 l64 0 l64 0 l0 64 l0 64 l64 0 l64 0 l0 -64 l0 -64 l-64 0 l0 -64 l0 -64 l64 0 l0 -64 l0 -64 l-64 0 Z" /><glyph glyph-name="plus" unicode="+" d="M320 128 l-64 0 l0 64 l0 64 l0 64 l-64 0 l-64 0 l-64 0 l0 64 l0 64 l64 0 l64 0 l64 0 l0 64 l0 64 l0 64 l64 0 l64 0 l0 -64 l0 -64 l0 -64 l64 0 l64 0 l64 0 l0 -64 l0 -64 l-64 0 l-64 0 l-64 0 l0 -64 l0 -64 l0 -64 l-64 0 Z" /><glyph glyph-name="comma" unicode="," d="M0 -128 l0 64 l64 0 l0 -64 l-64 0 ZM64 -64 l0 64 l-64 0 l0 64 l0 64 l64 0 l64 0 l0 -64 l0 -64 l0 -64 l-64 0 Z" /><glyph glyph-name="hyphen" unicode="-" d="M256 192 l-64 0 l-64 0 l-64 0 l-64 0 l0 64 l0 64 l64 0 l64 0 l64 0 l64 0 l64 0 l0 -64 l0 -64 l-64 0 Z" /><glyph glyph-name="period" unicode="." d="M64 0 l-64 0 l0 64 l0 64 l64 0 l64 0 l0 -64 l0 -64 l-64 0 Z" /><glyph glyph-name="slash" unicode="/" d="M0 0 l0 64 l64 0 l0 -64 l-64 0 ZM64 64 l0 64 l0 64 l64 0 l0 -64 l0 -64 l-64 0 ZM128 192 l0 64 l64 0 l0 -64 l-64 0 ZM192 256 l0 64 l0 64 l64 0 l0 -64 l0 -64 l-64 0 ZM256 384 l0 64 l64 0 l0 -64 l-64 0 ZM320 448 l0 64 l0 64 l64 0 l0 -64 l0 -64 l-64 0 ZM384 576 l0 64 l64 0 l0 -64 l-64 0 ZM448 640 l0 64 l0 64 l64 0 l0 -64 l0 -64 l-64 0 Z" /><glyph glyph-name="zero" unicode="0" d="M320 0 l-64 0 l-64 0 l-64 0 l0 64 l0 64 l64 0 l64 0 l64 0 l64 0 l0 -64 l0 -64 l-64 0 ZM384 128 l0 64 l0 64 l0 64 l0 64 l0 64 l-64 0 l0 -64 l0 -64 l-64 0 l-64 0 l0 -64 l0 -64 l-64 0 l0 -64 l-64 0 l-64 0 l0 64 l0 64 l0 64 l0 64 l0 64 l0 64 l0 64 l0 64 l64 0 l64 0 l0 -64 l0 -64 l0 -64 l0 -64 l0 -64 l64 0 l0 64 l0 64 l64 0 l64 0 l0 64 l0 64 l64 0 l0 64 l64 0 l64 0 l0 -64 l0 -64 l0 -64 l0 -64 l0 -64 l0 -64 l0 -64 l0 -64 l-64 0 l-64 0 ZM384 640 l-64 0 l-64 0 l-64 0 l-64 0 l0 64 l0 64 l64 0 l64 0 l64 0 l64 0 l0 -64 l0 -64 Z" /><glyph glyph-name="one" unicode="1" d="M320 0 l-64 0 l-64 0 l-64 0 l-64 0 l-64 0 l0 64 l0 64 l64 0 l64 0 l0 64 l0 64 l0 64 l0 64 l0 64 l0 64 l-64 0 l-64 0 l0 64 l0 64 l64 0 l64 0 l0 64 l0 64 l64 0 l64 0 l0 -64 l0 -64 l0 -64 l0 -64 l0 -64 l0 -64 l0 -64 l0 -64 l0 -64 l0 -64 l64 0 l64 0 l0 -64 l0 -64 l-64 0 Z" /><glyph glyph-name="two" unicode="2" d="M448 0 l-64 0 l-64 0 l-64 0 l-64 0 l-64 0 l-64 0 l-64 0 l0 64 l0 64 l0 64 l0 64 l64 0 l64 0 l0 -64 l0 -64 l64 0 l64 0 l64 0 l64 0 l64 0 l64 0 l0 -64 l0 -64 l-64 0 ZM128 256 l0 64 l0 64 l64 0 l64 0 l0 -64 l0 -64 l-64 0 l-64 0 ZM256 384 l0 64 l0 64 l64 0 l64 0 l0 -64 l0 -64 l-64 0 l-64 0 ZM384 512 l0 64 l0 64 l64 0 l64 0 l0 -64 l0 -64 l-64 0 l-64 0 ZM64 512 l-64 0 l0 64 l0 64 l64 0 l64 0 l0 -64 l0 -64 l-64 0 ZM384 640 l-64 0 l-64 0 l-64 0 l-64 0 l0 64 l0 64 l64 0 l64 0 l64 0 l64 0 l0 -64 l0 -64 Z" /><glyph glyph-name="three" unicode="3" d="M320 0 l-64 0 l-64 0 l-64 0 l0 64 l0 64 l64 0 l64 0 l64 0 l64 0 l0 -64 l0 -64 l-64 0 ZM384 128 l0 64 l0 64 l0 64 l64 0 l64 0 l0 -64 l0 -64 l0 -64 l-64 0 l-64 0 ZM128 128 l-64 0 l-64 0 l0 64 l0 64 l64 0 l64 0 l0 -64 l0 -64 ZM384 320 l-64 0 l-64 0 l0 64 l0 64 l64 0 l64 0 l0 -64 l0 -64 ZM384 448 l0 64 l0 64 l0 64 l64 0 l64 0 l0 -64 l0 -64 l0 -64 l-64 0 l-64 0 ZM64 512 l-64 0 l0 64 l0 64 l64 0 l64 0 l0 -64 l0 -64 l-64 0 ZM384 640 l-64 0 l-64 0 l-64 0 l-64 0 l0 64 l0 64 l64 0 l64 0 l64 0 l64 0 l0 -64 l0 -64 Z" /><glyph glyph-name="four" unicode="4" d="M448 0 l-64 0 l0 64 l0 64 l-64 0 l-64 0 l-64 0 l-64 0 l-64 0 l-64 0 l0 64 l0 64 l0 64 l0 64 l64 0 l64 0 l0 64 l0 64 l64 0 l64 0 l0 64 l0 64 l64 0 l64 0 l0 64 l0 64 l64 0 l64 0 l0 -64 l0 -64 l0 -64 l0 -64 l0 -64 l0 -64 l0 -64 l0 -64 l64 0 l0 -64 l0 -64 l-64 0 l0 -64 l0 -64 l-64 0 ZM320 256 l64 0 l0 64 l0 64 l0 64 l0 64 l-64 0 l-64 0 l0 -64 l0 -64 l-64 0 l-64 0 l0 -64 l0 -64 l64 0 l64 0 l64 0 Z" /><glyph glyph-name="five" unicode="5" d="M448 0 l-64 0 l-64 0 l-64 0 l-64 0 l-64 0 l-64 0 l0 64 l0 64 l64 0 l64 0 l64 0 l64 0 l64 0 l64 0 l64 0 l0 -64 l0 -64 l-64 0 ZM512 128 l0 64 l0 64 l64 0 l64 0 l0 -64 l0 -64 l-64 0 l-64 0 ZM64 128 l-64 0 l0 64 l0 64 l64 0 l0 -64 l0 -64 ZM512 256 l-64 0 l-64 0 l-64 0 l-64 0 l-64 0 l-64 0 l0 64 l0 64 l64 0 l64 0 l64 0 l64 0 l64 0 l64 0 l0 -64 l0 -64 ZM128 384 l-64 0 l-64 0 l0 64 l0 64 l0 64 l0 64 l0 64 l0 64 l64 0 l64 0 l64 0 l64 0 l64 0 l64 0 l64 0 l64 0 l0 -64 l0 -64 l-64 0 l-64 0 l-64 0 l-64 0 l-64 0 l-64 0 l0 -64 l0 -64 l0 -64 l0 -64 Z" /><glyph glyph-name="six" unicode="6" d="M384 0 l-64 0 l-64 0 l-64 0 l-64 0 l0 64 l0 64 l64 0 l64 0 l64 0 l64 0 l64 0 l0 -64 l0 -64 l-64 0 ZM448 128 l0 64 l0 64 l64 0 l64 0 l0 -64 l0 -64 l-64 0 l-64 0 ZM128 128 l-64 0 l-64 0 l0 64 l0 64 l0 64 l0 64 l0 64 l0 64 l64 0 l64 0 l0 -64 l0 -64 l64 0 l64 0 l64 0 l64 0 l64 0 l0 -64 l0 -64 l-64 0 l-64 0 l-64 0 l-64 0 l-64 0 l0 -64 l0 -64 ZM128 512 l0 64 l0 64 l64 0 l64 0 l0 -64 l0 -64 l-64 0 l-64 0 ZM448 640 l-64 0 l-64 0 l-64 0 l0 64 l0 64 l64 0 l64 0 l64 0 l64 0 l0 -64 l0 -64 l-64 0 Z" /><glyph glyph-name="seven" unicode="7" d="M192 0 l-64 0 l0 64 l0 64 l0 64 l0 64 l0 64 l0 64 l64 0 l64 0 l0 -64 l0 -64 l0 -64 l0 -64 l0 -64 l0 -64 l-64 0 ZM256 384 l0 64 l0 64 l64 0 l64 0 l0 -64 l0 -64 l-64 0 l-64 0 ZM384 512 l0 64 l0 64 l-64 0 l-64 0 l-64 0 l-64 0 l0 -64 l0 -64 l-64 0 l-64 0 l0 64 l0 64 l0 64 l0 64 l64 0 l64 0 l64 0 l64 0 l64 0 l64 0 l64 0 l64 0 l0 -64 l0 -64 l0 -64 l0 -64 l-64 0 l-64 0 Z" /><glyph glyph-name="eight" unicode="8" d="M320 0 l-64 0 l-64 0 l-64 0 l0 64 l0 64 l64 0 l64 0 l64 0 l64 0 l0 -64 l0 -64 l-64 0 ZM384 128 l0 64 l0 64 l0 64 l64 0 l64 0 l0 -64 l0 -64 l0 -64 l-64 0 l-64 0 ZM128 128 l-64 0 l-64 0 l0 64 l0 64 l0 64 l64 0 l64 0 l0 -64 l0 -64 l0 -64 ZM384 320 l-64 0 l-64 0 l-64 0 l-64 0 l0 64 l0 64 l64 0 l64 0 l64 0 l64 0 l0 -64 l0 -64 ZM384 448 l0 64 l0 64 l0 64 l64 0 l64 0 l0 -64 l0 -64 l0 -64 l-64 0 l-64 0 ZM128 448 l-64 0 l-64 0 l0 64 l0 64 l0 64 l64 0 l64 0 l0 -64 l0 -64 l0 -64 ZM384 640 l-64 0 l-64 0 l-64 0 l-64 0 l0 64 l0 64 l64 0 l64 0 l64 0 l64 0 l0 -64 l0 -64 Z" /><glyph glyph-name="nine" unicode="9" d="M320 0 l-64 0 l-64 0 l-64 0 l0 64 l0 64 l64 0 l64 0 l64 0 l64 0 l0 -64 l0 -64 l-64 0 ZM384 128 l0 64 l0 64 l-64 0 l-64 0 l-64 0 l-64 0 l0 64 l0 64 l64 0 l64 0 l64 0 l64 0 l0 64 l0 64 l0 64 l0 64 l64 0 l64 0 l0 -64 l0 -64 l0 -64 l0 -64 l0 -64 l0 -64 l0 -64 l0 -64 l-64 0 l-64 0 ZM128 384 l-64 0 l-64 0 l0 64 l0 64 l0 64 l0 64 l64 0 l64 0 l0 -64 l0 -64 l0 -64 l0 -64 ZM384 640 l-64 0 l-64 0 l-64 0 l-64 0 l0 64 l0 64 l64 0 l64 0 l64 0 l64 0 l0 -64 l0 -64 Z" /><glyph glyph-name="colon" unicode=":" d="M128 0 l-64 0 l0 64 l0 64 l64 0 l64 0 l0 -64 l0 -64 l-64 0 ZM128 448 l-64 0 l0 64 l0 64 l64 0 l64 0 l0 -64 l0 -64 l-64 0 Z" /><glyph glyph-name="semicolon" unicode=";" d="M64 -128 l0 64 l64 0 l0 -64 l-64 0 ZM128 -64 l0 64 l-64 0 l0 64 l0 64 l64 0 l64 0 l0 -64 l0 -64 l0 -64 l-64 0 ZM128 448 l-64 0 l0 64 l0 64 l64 0 l64 0 l0 -64 l0 -64 l-64 0 Z" /><glyph glyph-name="less" unicode="&lt;" d="M320 128 l-64 0 l0 64 l0 64 l64 0 l64 0 l0 -64 l0 -64 l-64 0 ZM256 256 l-64 0 l-64 0 l0 64 l64 0 l64 0 l0 -64 ZM128 320 l-64 0 l-64 0 l0 64 l0 64 l64 0 l64 0 l0 -64 l0 -64 ZM192 512 l64 0 l0 -64 l-64 0 l-64 0 l0 64 l64 0 ZM256 512 l0 64 l0 64 l64 0 l64 0 l0 -64 l0 -64 l-64 0 l-64 0 Z" /><glyph glyph-name="equal" unicode="=" d="M448 192 l-64 0 l-64 0 l-64 0 l-64 0 l-64 0 l-64 0 l-64 0 l0 64 l0 64 l64 0 l64 0 l64 0 l64 0 l64 0 l64 0 l64 0 l64 0 l0 -64 l0 -64 l-64 0 ZM448 448 l-64 0 l-64 0 l-64 0 l-64 0 l-64 0 l-64 0 l-64 0 l0 64 l0 64 l64 0 l64 0 l64 0 l64 0 l64 0 l64 0 l64 0 l64 0 l0 -64 l0 -64 l-64 0 Z" /><glyph glyph-name="greater" unicode="&gt;" d="M64 128 l-64 0 l0 64 l0 64 l64 0 l64 0 l0 -64 l0 -64 l-64 0 ZM192 320 l64 0 l0 -64 l-64 0 l-64 0 l0 64 l64 0 ZM256 320 l0 64 l0 64 l64 0 l64 0 l0 -64 l0 -64 l-64 0 l-64 0 ZM256 448 l-64 0 l-64 0 l0 64 l64 0 l64 0 l0 -64 ZM128 512 l-64 0 l-64 0 l0 64 l0 64 l64 0 l64 0 l0 -64 l0 -64 Z" /><glyph glyph-name="question" unicode="?" d="M192 0 l-64 0 l0 64 l0 64 l64 0 l64 0 l0 -64 l0 -64 l-64 0 ZM192 192 l-64 0 l0 64 l0 64 l64 0 l64 0 l0 -64 l0 -64 l-64 0 ZM256 320 l0 64 l0 64 l64 0 l64 0 l0 -64 l0 -64 l-64 0 l-64 0 ZM384 448 l0 64 l0 64 l0 64 l64 0 l64 0 l0 -64 l0 -64 l0 -64 l-64 0 l-64 0 ZM64 512 l-64 0 l0 64 l0 64 l64 0 l64 0 l0 -64 l0 -64 l-64 0 ZM384 640 l-64 0 l-64 0 l-64 0 l-64 0 l0 64 l0 64 l64 0 l64 0 l64 0 l64 0 l0 -64 l0 -64 Z" /><glyph glyph-name="at" unicode="@" d="M704 -192 l-64 0 l-64 0 l-64 0 l-64 0 l-64 0 l-64 0 l-64 0 l-64 0 l-64 0 l0 64 l-64 0 l0 64 l-64 0 l0 64 l0 64 l0 64 l0 64 l0 64 l0 64 l0 64 l0 64 l0 64 l0 64 l0 64 l64 0 l0 64 l64 0 l0 64 l64 0 l64 0 l64 0 l64 0 l64 0 l64 0 l64 0 l64 0 l64 0 l64 0 l0 -64 l64 0 l0 -64 l64 0 l0 -64 l0 -64 l0 -64 l0 -64 l0 -64 l0 -64 l0 -64 l0 -64 l0 -64 l-64 0 l-64 0 l0 -64 l-64 0 l-64 0 l-64 0 l-64 0 l-64 0 l-64 0 l-64 0 l-64 0 l0 64 l0 64 l0 64 l0 64 l0 64 l0 64 l64 0 l64 0 l0 64 l0 64 l64 0 l64 0 l64 0 l64 0 l64 0 l0 -64 l0 -64 l0 -64 l0 -64 l0 -64 l0 -64 l64 0 l0 64 l0 64 l0 64 l0 64 l0 64 l0 64 l0 64 l0 64 l-64 0 l-64 0 l-64 0 l-64 0 l-64 0 l-64 0 l-64 0 l-64 0 l-64 0 l-64 0 l0 -64 l0 -64 l0 -64 l0 -64 l0 -64 l0 -64 l0 -64 l0 -64 l0 -64 l0 -64 l0 -64 l64 0 l64 0 l64 0 l64 0 l64 0 l64 0 l64 0 l64 0 l64 0 l64 0 l0 64 l64 0 l64 0 l0 -64 l-64 0 l0 -64 l-64 0 l0 -64 l-64 0 ZM512 128 l64 0 l0 64 l0 64 l0 64 l0 64 l-64 0 l-64 0 l-64 0 l0 -64 l0 -64 l0 -64 l0 -64 l64 0 l64 0 Z" /><glyph glyph-name="A" unicode="A" d="M512 0 l-64 0 l0 64 l0 64 l0 64 l0 64 l0 64 l0 64 l-64 0 l-64 0 l-64 0 l-64 0 l-64 0 l0 -64 l0 -64 l0 -64 l0 -64 l0 -64 l0 -64 l-64 0 l-64 0 l0 64 l0 64 l0 64 l0 64 l0 64 l0 64 l0 64 l0 64 l0 64 l0 64 l64 0 l64 0 l0 -64 l0 -64 l64 0 l64 0 l64 0 l64 0 l64 0 l0 64 l0 64 l64 0 l64 0 l0 -64 l0 -64 l0 -64 l0 -64 l0 -64 l0 -64 l0 -64 l0 -64 l0 -64 l0 -64 l-64 0 ZM448 640 l-64 0 l-64 0 l-64 0 l-64 0 l-64 0 l0 64 l0 64 l64 0 l64 0 l64 0 l64 0 l64 0 l0 -64 l0 -64 Z" /><glyph glyph-name="B" unicode="B" d="M448 0 l-64 0 l-64 0 l-64 0 l-64 0 l-64 0 l-64 0 l-64 0 l0 64 l0 64 l0 64 l0 64 l0 64 l0 64 l0 64 l0 64 l0 64 l0 64 l0 64 l0 64 l64 0 l64 0 l64 0 l64 0 l64 0 l64 0 l64 0 l64 0 l0 -64 l0 -64 l64 0 l64 0 l0 -64 l0 -64 l0 -64 l-64 0 l-64 0 l0 64 l0 64 l0 64 l-64 0 l-64 0 l-64 0 l-64 0 l-64 0 l-64 0 l0 -64 l0 -64 l0 -64 l64 0 l64 0 l64 0 l64 0 l64 0 l64 0 l0 -64 l0 -64 l64 0 l64 0 l0 -64 l0 -64 l0 -64 l-64 0 l-64 0 l0 64 l0 64 l0 64 l-64 0 l-64 0 l-64 0 l-64 0 l-64 0 l-64 0 l0 -64 l0 -64 l0 -64 l64 0 l64 0 l64 0 l64 0 l64 0 l64 0 l0 -64 l0 -64 l-64 0 Z" /><glyph glyph-name="C" unicode="C" d="M576 0 l-64 0 l-64 0 l-64 0 l-64 0 l-64 0 l-64 0 l-64 0 l0 64 l0 64 l64 0 l64 0 l64 0 l64 0 l64 0 l64 0 l64 0 l0 64 l0 64 l64 0 l64 0 l0 -64 l0 -64 l-64 0 l0 -64 l0 -64 l-64 0 ZM128 128 l-64 0 l-64 0 l0 64 l0 64 l0 64 l0 64 l0 64 l0 64 l0 64 l0 64 l64 0 l64 0 l0 -64 l0 -64 l0 -64 l0 -64 l0 -64 l0 -64 l0 -64 l0 -64 ZM640 512 l-64 0 l0 64 l0 64 l-64 0 l-64 0 l-64 0 l-64 0 l-64 0 l-64 0 l-64 0 l0 64 l0 64 l64 0 l64 0 l64 0 l64 0 l64 0 l64 0 l64 0 l64 0 l0 -64 l0 -64 l64 0 l0 -64 l0 -64 l-64 0 Z" /><glyph glyph-name="D" unicode="D" d="M448 0 l-64 0 l-64 0 l-64 0 l-64 0 l-64 0 l-64 0 l-64 0 l0 64 l0 64 l0 64 l0 64 l0 64 l0 64 l0 64 l0 64 l0 64 l0 64 l0 64 l0 64 l64 0 l64 0 l64 0 l64 0 l64 0 l64 0 l64 0 l64 0 l0 -64 l0 -64 l64 0 l64 0 l0 -64 l0 -64 l0 -64 l0 -64 l0 -64 l0 -64 l0 -64 l0 -64 l-64 0 l-64 0 l0 64 l0 64 l0 64 l0 64 l0 64 l0 64 l0 64 l0 64 l-64 0 l-64 0 l-64 0 l-64 0 l-64 0 l-64 0 l0 -64 l0 -64 l0 -64 l0 -64 l0 -64 l0 -64 l0 -64 l0 -64 l64 0 l64 0 l64 0 l64 0 l64 0 l64 0 l0 -64 l0 -64 l-64 0 Z" /><glyph glyph-name="E" unicode="E" d="M576 0 l-64 0 l-64 0 l-64 0 l-64 0 l-64 0 l-64 0 l-64 0 l-64 0 l-64 0 l0 64 l0 64 l0 64 l0 64 l0 64 l0 64 l0 64 l0 64 l0 64 l0 64 l0 64 l0 64 l64 0 l64 0 l64 0 l64 0 l64 0 l64 0 l64 0 l64 0 l64 0 l64 0 l0 -64 l0 -64 l-64 0 l-64 0 l-64 0 l-64 0 l-64 0 l-64 0 l-64 0 l-64 0 l0 -64 l0 -64 l64 0 l64 0 l64 0 l0 -64 l0 -64 l-64 0 l-64 0 l-64 0 l0 -64 l0 -64 l0 -64 l0 -64 l64 0 l64 0 l64 0 l64 0 l64 0 l64 0 l64 0 l64 0 l0 -64 l0 -64 l-64 0 Z" /><glyph glyph-name="F" unicode="F" d="M64 0 l-64 0 l0 64 l0 64 l0 64 l0 64 l0 64 l0 64 l0 64 l0 64 l0 64 l0 64 l0 64 l0 64 l64 0 l64 0 l64 0 l64 0 l64 0 l64 0 l64 0 l64 0 l64 0 l0 -64 l0 -64 l-64 0 l-64 0 l-64 0 l-64 0 l-64 0 l-64 0 l-64 0 l0 -64 l0 -64 l64 0 l64 0 l64 0 l64 0 l0 -64 l0 -64 l-64 0 l-64 0 l-64 0 l-64 0 l0 -64 l0 -64 l0 -64 l0 -64 l0 -64 l0 -64 l-64 0 Z" /><glyph glyph-name="G" unicode="G" d="M512 0 l-64 0 l-64 0 l-64 0 l-64 0 l-64 0 l-64 0 l0 64 l0 64 l64 0 l64 0 l64 0 l64 0 l64 0 l64 0 l64 0 l0 -64 l0 -64 l-64 0 ZM576 128 l0 64 l0 64 l0 64 l0 64 l-64 0 l-64 0 l0 64 l0 64 l64 0 l64 0 l64 0 l64 0 l0 -64 l0 -64 l0 -64 l0 -64 l0 -64 l0 -64 l-64 0 l-64 0 ZM128 128 l-64 0 l-64 0 l0 64 l0 64 l0 64 l0 64 l0 64 l0 64 l0 64 l0 64 l64 0 l64 0 l0 -64 l0 -64 l0 -64 l0 -64 l0 -64 l0 -64 l0 -64 l0 -64 ZM640 640 l-64 0 l-64 0 l-64 0 l-64 0 l-64 0 l-64 0 l-64 0 l-64 0 l0 64 l0 64 l64 0 l64 0 l64 0 l64 0 l64 0 l64 0 l64 0 l64 0 l64 0 l0 -64 l0 -64 l-64 0 Z" /><glyph glyph-name="H" unicode="H" d="M576 0 l-64 0 l0 64 l0 64 l0 64 l0 64 l0 64 l-64 0 l-64 0 l-64 0 l-64 0 l-64 0 l-64 0 l0 -64 l0 -64 l0 -64 l0 -64 l0 -64 l-64 0 l-64 0 l0 64 l0 64 l0 64 l0 64 l0 64 l0 64 l0 64 l0 64 l0 64 l0 64 l0 64 l0 64 l64 0 l64 0 l0 -64 l0 -64 l0 -64 l0 -64 l0 -64 l64 0 l64 0 l64 0 l64 0 l64 0 l64 0 l0 64 l0 64 l0 64 l0 64 l0 64 l64 0 l64 0 l0 -64 l0 -64 l0 -64 l0 -64 l0 -64 l0 -64 l0 -64 l0 -64 l0 -64 l0 -64 l0 -64 l0 -64 l-64 0 Z" /><glyph glyph-name="I" unicode="I" d="M256 0 l-64 0 l-64 0 l-64 0 l0 64 l0 64 l64 0 l0 64 l0 64 l0 64 l0 64 l0 64 l0 64 l0 64 l0 64 l-64 0 l0 64 l0 64 l64 0 l64 0 l64 0 l64 0 l0 -64 l0 -64 l-64 0 l0 -64 l0 -64 l0 -64 l0 -64 l0 -64 l0 -64 l0 -64 l0 -64 l64 0 l0 -64 l0 -64 l-64 0 Z" /><glyph glyph-name="J" unicode="J" d="M256 0 l-64 0 l-64 0 l0 64 l0 64 l64 0 l64 0 l64 0 l0 -64 l0 -64 l-64 0 ZM320 128 l0 64 l0 64 l0 64 l0 64 l0 64 l0 64 l0 64 l0 64 l0 64 l0 64 l64 0 l64 0 l0 -64 l0 -64 l0 -64 l0 -64 l0 -64 l0 -64 l0 -64 l0 -64 l0 -64 l0 -64 l-64 0 l-64 0 ZM128 128 l-64 0 l-64 0 l0 64 l0 64 l64 0 l64 0 l0 -64 l0 -64 Z" /><glyph glyph-name="K" unicode="K" d="M512 0 l-64 0 l0 64 l0 64 l0 64 l64 0 l64 0 l0 -64 l0 -64 l0 -64 l-64 0 ZM64 0 l-64 0 l0 64 l0 64 l0 64 l0 64 l0 64 l0 64 l0 64 l0 64 l0 64 l0 64 l0 64 l0 64 l64 0 l64 0 l0 -64 l0 -64 l0 -64 l0 -64 l0 -64 l64 0 l64 0 l64 0 l0 -64 l0 -64 l64 0 l64 0 l0 -64 l0 -64 l-64 0 l-64 0 l0 64 l0 64 l-64 0 l-64 0 l-64 0 l0 -64 l0 -64 l0 -64 l0 -64 l0 -64 l-64 0 ZM320 448 l0 64 l0 64 l64 0 l64 0 l0 -64 l0 -64 l-64 0 l-64 0 ZM448 576 l0 64 l0 64 l64 0 l64 0 l0 -64 l0 -64 l-64 0 l-64 0 Z" /><glyph glyph-name="L" unicode="L" d="M512 0 l-64 0 l-64 0 l-64 0 l-64 0 l-64 0 l-64 0 l-64 0 l-64 0 l0 64 l0 64 l0 64 l0 64 l0 64 l0 64 l0 64 l0 64 l0 64 l0 64 l0 64 l0 64 l64 0 l64 0 l0 -64 l0 -64 l0 -64 l0 -64 l0 -64 l0 -64 l0 -64 l0 -64 l0 -64 l0 -64 l64 0 l64 0 l64 0 l64 0 l64 0 l64 0 l64 0 l0 -64 l0 -64 l-64 0 Z" /><glyph glyph-name="M" unicode="M" d="M576 0 l-64 0 l0 64 l0 64 l0 64 l0 64 l0 64 l0 64 l0 64 l0 64 l-64 0 l-64 0 l0 -64 l0 -64 l-64 0 l-64 0 l0 64 l0 64 l64 0 l64 0 l0 64 l0 64 l64 0 l64 0 l0 64 l0 64 l64 0 l64 0 l0 -64 l0 -64 l0 -64 l0 -64 l0 -64 l0 -64 l0 -64 l0 -64 l0 -64 l0 -64 l0 -64 l0 -64 l-64 0 ZM64 0 l-64 0 l0 64 l0 64 l0 64 l0 64 l0 64 l0 64 l0 64 l0 64 l0 64 l0 64 l0 64 l0 64 l64 0 l64 0 l0 -64 l0 -64 l64 0 l64 0 l0 -64 l0 -64 l-64 0 l-64 0 l0 -64 l0 -64 l0 -64 l0 -64 l0 -64 l0 -64 l0 -64 l0 -64 l-64 0 Z" /><glyph glyph-name="N" unicode="N" d="M576 0 l-64 0 l0 64 l0 64 l0 64 l0 64 l0 64 l-64 0 l-64 0 l0 64 l0 64 l64 0 l64 0 l0 64 l0 64 l0 64 l0 64 l0 64 l64 0 l64 0 l0 -64 l0 -64 l0 -64 l0 -64 l0 -64 l0 -64 l0 -64 l0 -64 l0 -64 l0 -64 l0 -64 l0 -64 l-64 0 ZM64 0 l-64 0 l0 64 l0 64 l0 64 l0 64 l0 64 l0 64 l0 64 l0 64 l0 64 l0 64 l0 64 l0 64 l64 0 l64 0 l0 -64 l64 0 l64 0 l0 -64 l0 -64 l64 0 l64 0 l0 -64 l0 -64 l-64 0 l-64 0 l0 64 l0 64 l-64 0 l-64 0 l0 -64 l0 -64 l0 -64 l0 -64 l0 -64 l0 -64 l0 -64 l0 -64 l0 -64 l-64 0 Z" /><glyph glyph-name="O" unicode="O" d="M576 0 l-64 0 l-64 0 l-64 0 l-64 0 l-64 0 l-64 0 l-64 0 l0 64 l0 64 l64 0 l64 0 l64 0 l64 0 l64 0 l64 0 l64 0 l64 0 l0 -64 l0 -64 l-64 0 ZM640 128 l0 64 l0 64 l0 64 l0 64 l0 64 l0 64 l0 64 l0 64 l64 0 l64 0 l0 -64 l0 -64 l0 -64 l0 -64 l0 -64 l0 -64 l0 -64 l0 -64 l-64 0 l-64 0 ZM128 128 l-64 0 l-64 0 l0 64 l0 64 l0 64 l0 64 l0 64 l0 64 l0 64 l0 64 l64 0 l64 0 l0 -64 l0 -64 l0 -64 l0 -64 l0 -64 l0 -64 l0 -64 l0 -64 ZM640 640 l-64 0 l-64 0 l-64 0 l-64 0 l-64 0 l-64 0 l-64 0 l-64 0 l0 64 l0 64 l64 0 l64 0 l64 0 l64 0 l64 0 l64 0 l64 0 l64 0 l0 -64 l0 -64 Z" /><glyph glyph-name="P" unicode="P" d="M64 0 l-64 0 l0 64 l0 64 l0 64 l0 64 l0 64 l0 64 l0 64 l0 64 l0 64 l0 64 l0 64 l0 64 l64 0 l64 0 l64 0 l64 0 l64 0 l64 0 l64 0 l64 0 l0 -64 l0 -64 l64 0 l64 0 l0 -64 l0 -64 l-64 0 l-64 0 l0 64 l0 64 l-64 0 l-64 0 l-64 0 l-64 0 l-64 0 l-64 0 l0 -64 l0 -64 l64 0 l64 0 l64 0 l64 0 l64 0 l64 0 l0 -64 l0 -64 l-64 0 l-64 0 l-64 0 l-64 0 l-64 0 l-64 0 l0 -64 l0 -64 l0 -64 l0 -64 l0 -64 l0 -64 l-64 0 Z" /><glyph glyph-name="Q" unicode="Q" d="M704 64 l64 0 l0 -64 l-64 0 l-64 0 l-64 0 l-64 0 l-64 0 l-64 0 l-64 0 l-64 0 l-64 0 l-64 0 l0 64 l0 64 l64 0 l64 0 l64 0 l64 0 l0 64 l64 0 l64 0 l0 -64 l64 0 l64 0 l0 -64 l64 0 ZM640 128 l0 64 l0 64 l0 64 l0 64 l0 64 l0 64 l0 64 l0 64 l64 0 l64 0 l0 -64 l0 -64 l0 -64 l0 -64 l0 -64 l0 -64 l0 -64 l0 -64 l-64 0 l-64 0 ZM128 128 l-64 0 l-64 0 l0 64 l0 64 l0 64 l0 64 l0 64 l0 64 l0 64 l0 64 l64 0 l64 0 l0 -64 l0 -64 l0 -64 l0 -64 l0 -64 l0 -64 l0 -64 l0 -64 ZM640 640 l-64 0 l-64 0 l-64 0 l-64 0 l-64 0 l-64 0 l-64 0 l-64 0 l0 64 l0 64 l64 0 l64 0 l64 0 l64 0 l64 0 l64 0 l64 0 l64 0 l0 -64 l0 -64 Z" /><glyph glyph-name="R" unicode="R" d="M704 0 l-64 0 l0 64 l0 64 l64 0 l64 0 l0 -64 l0 -64 l-64 0 ZM64 0 l-64 0 l0 64 l0 64 l0 64 l0 64 l0 64 l0 64 l0 64 l0 64 l0 64 l0 64 l0 64 l0 64 l64 0 l64 0 l64 0 l64 0 l64 0 l64 0 l64 0 l64 0 l64 0 l0 -64 l0 -64 l64 0 l64 0 l0 -64 l0 -64 l-64 0 l-64 0 l0 64 l0 64 l-64 0 l-64 0 l-64 0 l-64 0 l-64 0 l-64 0 l-64 0 l0 -64 l0 -64 l64 0 l64 0 l64 0 l64 0 l64 0 l64 0 l64 0 l0 -64 l0 -64 l-64 0 l0 -64 l0 -64 l64 0 l64 0 l0 -64 l0 -64 l-64 0 l-64 0 l0 64 l0 64 l-64 0 l-64 0 l0 64 l0 64 l-64 0 l-64 0 l-64 0 l-64 0 l0 -64 l0 -64 l0 -64 l0 -64 l0 -64 l0 -64 l-64 0 Z" /><glyph glyph-name="S" unicode="S" d="M384 0 l-64 0 l-64 0 l-64 0 l-64 0 l-64 0 l-64 0 l0 64 l0 64 l64 0 l64 0 l64 0 l64 0 l64 0 l64 0 l64 0 l0 -64 l0 -64 l-64 0 ZM448 128 l0 64 l0 64 l0 64 l0 64 l64 0 l64 0 l0 -64 l0 -64 l0 -64 l0 -64 l-64 0 l-64 0 ZM448 384 l-64 0 l-64 0 l-64 0 l-64 0 l-64 0 l0 64 l0 64 l64 0 l64 0 l64 0 l64 0 l64 0 l0 -64 l0 -64 ZM128 512 l-64 0 l-64 0 l0 64 l0 64 l64 0 l64 0 l0 -64 l0 -64 ZM512 640 l-64 0 l-64 0 l-64 0 l-64 0 l-64 0 l-64 0 l0 64 l0 64 l64 0 l64 0 l64 0 l64 0 l64 0 l64 0 l64 0 l0 -64 l0 -64 l-64 0 Z" /><glyph glyph-name="T" unicode="T" d="M320 0 l-64 0 l0 64 l0 64 l0 64 l0 64 l0 64 l0 64 l0 64 l0 64 l0 64 l0 64 l-64 0 l-64 0 l-64 0 l-64 0 l0 64 l0 64 l64 0 l64 0 l64 0 l64 0 l64 0 l64 0 l64 0 l64 0 l64 0 l64 0 l0 -64 l0 -64 l-64 0 l-64 0 l-64 0 l-64 0 l0 -64 l0 -64 l0 -64 l0 -64 l0 -64 l0 -64 l0 -64 l0 -64 l0 -64 l0 -64 l-64 0 Z" /><glyph glyph-name="U" unicode="U" d="M448 0 l-64 0 l-64 0 l-64 0 l-64 0 l0 64 l0 64 l64 0 l64 0 l64 0 l64 0 l64 0 l0 -64 l0 -64 l-64 0 ZM512 128 l0 64 l0 64 l0 64 l0 64 l0 64 l0 64 l0 64 l0 64 l0 64 l0 64 l64 0 l64 0 l0 -64 l0 -64 l0 -64 l0 -64 l0 -64 l0 -64 l0 -64 l0 -64 l0 -64 l0 -64 l-64 0 l-64 0 ZM192 128 l-64 0 l-64 0 l0 64 l0 64 l0 64 l0 64 l0 64 l0 64 l0 64 l0 64 l0 64 l0 64 l64 0 l64 0 l0 -64 l0 -64 l0 -64 l0 -64 l0 -64 l0 -64 l0 -64 l0 -64 l0 -64 l0 -64 Z" /><glyph glyph-name="V" unicode="V" d="M320 0 l-64 0 l0 64 l0 64 l0 64 l0 64 l64 0 l64 0 l0 -64 l0 -64 l0 -64 l0 -64 l-64 0 ZM384 256 l0 64 l0 64 l0 64 l64 0 l64 0 l0 -64 l0 -64 l0 -64 l-64 0 l-64 0 ZM256 256 l-64 0 l-64 0 l0 64 l0 64 l0 64 l64 0 l64 0 l0 -64 l0 -64 l0 -64 ZM512 448 l0 64 l0 64 l0 64 l0 64 l0 64 l64 0 l64 0 l0 -64 l0 -64 l0 -64 l0 -64 l0 -64 l-64 0 l-64 0 ZM128 448 l-64 0 l-64 0 l0 64 l0 64 l0 64 l0 64 l0 64 l64 0 l64 0 l0 -64 l0 -64 l0 -64 l0 -64 l0 -64 Z" /><glyph glyph-name="W" unicode="W" d="M576 0 l-64 0 l0 64 l0 64 l-64 0 l-64 0 l0 64 l0 64 l64 0 l64 0 l0 64 l0 64 l0 64 l0 64 l0 64 l0 64 l0 64 l0 64 l64 0 l64 0 l0 -64 l0 -64 l0 -64 l0 -64 l0 -64 l0 -64 l0 -64 l0 -64 l0 -64 l0 -64 l0 -64 l0 -64 l-64 0 ZM64 0 l-64 0 l0 64 l0 64 l0 64 l0 64 l0 64 l0 64 l0 64 l0 64 l0 64 l0 64 l0 64 l0 64 l64 0 l64 0 l0 -64 l0 -64 l0 -64 l0 -64 l0 -64 l0 -64 l0 -64 l0 -64 l64 0 l64 0 l0 -64 l0 -64 l-64 0 l-64 0 l0 -64 l0 -64 l-64 0 ZM384 256 l-64 0 l-64 0 l0 64 l0 64 l64 0 l64 0 l0 -64 l0 -64 Z" /><glyph glyph-name="X" unicode="X" d="M576 0 l-64 0 l0 64 l0 64 l0 64 l0 64 l64 0 l64 0 l0 -64 l0 -64 l0 -64 l0 -64 l-64 0 ZM64 0 l-64 0 l0 64 l0 64 l0 64 l0 64 l64 0 l64 0 l0 -64 l0 -64 l0 -64 l0 -64 l-64 0 ZM512 256 l-64 0 l-64 0 l0 64 l0 64 l64 0 l64 0 l0 -64 l0 -64 ZM128 256 l0 64 l0 64 l64 0 l64 0 l0 -64 l0 -64 l-64 0 l-64 0 ZM384 384 l-64 0 l-64 0 l0 64 l0 64 l64 0 l64 0 l0 -64 l0 -64 ZM384 512 l0 64 l0 64 l64 0 l64 0 l0 -64 l0 -64 l-64 0 l-64 0 ZM256 512 l-64 0 l-64 0 l0 64 l0 64 l64 0 l64 0 l0 -64 l0 -64 ZM512 640 l0 64 l0 64 l64 0 l64 0 l0 -64 l0 -64 l-64 0 l-64 0 ZM128 640 l-64 0 l-64 0 l0 64 l0 64 l64 0 l64 0 l0 -64 l0 -64 Z" /><glyph glyph-name="Y" unicode="Y" d="M320 0 l-64 0 l0 64 l0 64 l0 64 l0 64 l0 64 l0 64 l0 64 l0 64 l64 0 l64 0 l0 -64 l0 -64 l0 -64 l0 -64 l0 -64 l0 -64 l0 -64 l0 -64 l-64 0 ZM384 512 l0 64 l0 64 l64 0 l64 0 l0 -64 l0 -64 l-64 0 l-64 0 ZM256 512 l-64 0 l-64 0 l0 64 l0 64 l64 0 l64 0 l0 -64 l0 -64 ZM512 640 l0 64 l0 64 l64 0 l64 0 l0 -64 l0 -64 l-64 0 l-64 0 ZM128 640 l-64 0 l-64 0 l0 64 l0 64 l64 0 l64 0 l0 -64 l0 -64 Z" /><glyph glyph-name="Z" unicode="Z" d="M576 0 l-64 0 l-64 0 l-64 0 l-64 0 l-64 0 l-64 0 l-64 0 l-64 0 l-64 0 l0 64 l0 64 l64 0 l64 0 l0 64 l0 64 l64 0 l64 0 l0 -64 l0 -64 l64 0 l64 0 l64 0 l64 0 l64 0 l64 0 l0 -64 l0 -64 l-64 0 ZM256 256 l0 64 l0 64 l64 0 l64 0 l0 -64 l0 -64 l-64 0 l-64 0 ZM384 384 l0 64 l0 64 l64 0 l64 0 l0 -64 l0 -64 l-64 0 l-64 0 ZM512 512 l0 64 l0 64 l-64 0 l-64 0 l-64 0 l-64 0 l-64 0 l-64 0 l-64 0 l-64 0 l0 64 l0 64 l64 0 l64 0 l64 0 l64 0 l64 0 l64 0 l64 0 l64 0 l64 0 l64 0 l0 -64 l0 -64 l0 -64 l0 -64 l-64 0 l-64 0 Z" /><glyph glyph-name="bracketleft" unicode="[" d="M192 -192 l-64 0 l-64 0 l-64 0 l0 64 l0 64 l0 64 l0 64 l0 64 l0 64 l0 64 l0 64 l0 64 l0 64 l0 64 l0 64 l0 64 l0 64 l0 64 l64 0 l64 0 l64 0 l64 0 l0 -64 l0 -64 l-64 0 l-64 0 l0 -64 l0 -64 l0 -64 l0 -64 l0 -64 l0 -64 l0 -64 l0 -64 l0 -64 l0 -64 l0 -64 l64 0 l64 0 l0 -64 l0 -64 l-64 0 Z" /><glyph glyph-name="backslash" unicode="\" d="M448 0 l0 64 l64 0 l0 -64 l-64 0 ZM448 64 l-64 0 l0 64 l0 64 l64 0 l0 -64 l0 -64 ZM384 192 l-64 0 l0 64 l64 0 l0 -64 ZM320 256 l-64 0 l0 64 l0 64 l64 0 l0 -64 l0 -64 ZM256 384 l-64 0 l0 64 l64 0 l0 -64 ZM192 448 l-64 0 l0 64 l0 64 l64 0 l0 -64 l0 -64 ZM128 576 l-64 0 l0 64 l64 0 l0 -64 ZM64 640 l-64 0 l0 64 l0 64 l64 0 l0 -64 l0 -64 Z" /><glyph glyph-name="bracketright" unicode="]" d="M192 -192 l-64 0 l-64 0 l-64 0 l0 64 l0 64 l64 0 l64 0 l0 64 l0 64 l0 64 l0 64 l0 64 l0 64 l0 64 l0 64 l0 64 l0 64 l0 64 l-64 0 l-64 0 l0 64 l0 64 l64 0 l64 0 l64 0 l64 0 l0 -64 l0 -64 l0 -64 l0 -64 l0 -64 l0 -64 l0 -64 l0 -64 l0 -64 l0 -64 l0 -64 l0 -64 l0 -64 l0 -64 l0 -64 l-64 0 Z" /><glyph glyph-name="asciicircum" unicode="^" d="M448 384 l0 64 l0 64 l64 0 l0 -64 l0 -64 l-64 0 ZM0 384 l0 64 l0 64 l64 0 l0 -64 l0 -64 l-64 0 ZM448 512 l-64 0 l-64 0 l0 64 l0 64 l64 0 l64 0 l0 -64 l0 -64 ZM64 512 l0 64 l0 64 l64 0 l64 0 l0 -64 l0 -64 l-64 0 l-64 0 ZM320 640 l-64 0 l-64 0 l0 64 l0 64 l64 0 l64 0 l0 -64 l0 -64 Z" /><glyph glyph-name="underscore" unicode="_" d="M512 64 l64 0 l0 -64 l-64 0 l-64 0 l-64 0 l-64 0 l-64 0 l-64 0 l-64 0 l-64 0 l-64 0 l0 64 l64 0 l64 0 l64 0 l64 0 l64 0 l64 0 l64 0 l64 0 Z" /><glyph glyph-name="grave" unicode="`" d="M192 576 l0 64 l64 0 l0 -64 l-64 0 ZM192 640 l-64 0 l0 64 l64 0 l0 -64 ZM128 704 l-64 0 l0 64 l64 0 l0 -64 Z" /><glyph glyph-name="a" unicode="a" d="M512 0 l-64 0 l-64 0 l-64 0 l-64 0 l-64 0 l-64 0 l0 64 l0 64 l-64 0 l-64 0 l0 64 l0 64 l64 0 l64 0 l0 64 l0 64 l64 0 l64 0 l64 0 l64 0 l64 0 l0 64 l64 0 l64 0 l0 -64 l0 -64 l0 -64 l0 -64 l0 -64 l0 -64 l0 -64 l-64 0 ZM384 128 l64 0 l0 64 l0 64 l-64 0 l-64 0 l-64 0 l-64 0 l-64 0 l0 -64 l0 -64 l64 0 l64 0 l64 0 l64 0 ZM448 448 l-64 0 l-64 0 l-64 0 l-64 0 l-64 0 l-64 0 l-64 0 l0 64 l0 64 l64 0 l64 0 l64 0 l64 0 l64 0 l64 0 l64 0 l0 -64 l0 -64 Z" /><glyph glyph-name="b" unicode="b" d="M448 0 l-64 0 l-64 0 l-64 0 l-64 0 l-64 0 l-64 0 l-64 0 l0 64 l0 64 l0 64 l0 64 l0 64 l0 64 l0 64 l0 64 l0 64 l0 64 l0 64 l0 64 l64 0 l64 0 l0 -64 l0 -64 l0 -64 l0 -64 l0 -64 l0 -64 l64 0 l64 0 l0 -64 l0 -64 l-64 0 l-64 0 l0 -64 l0 -64 l64 0 l64 0 l64 0 l64 0 l64 0 l64 0 l0 -64 l0 -64 l-64 0 ZM512 128 l0 64 l0 64 l0 64 l0 64 l64 0 l64 0 l0 -64 l0 -64 l0 -64 l0 -64 l-64 0 l-64 0 ZM512 384 l-64 0 l-64 0 l-64 0 l-64 0 l0 64 l0 64 l64 0 l64 0 l64 0 l64 0 l0 -64 l0 -64 Z" /><glyph glyph-name="c" unicode="c" d="M384 0 l-64 0 l-64 0 l-64 0 l-64 0 l0 64 l0 64 l64 0 l64 0 l64 0 l64 0 l64 0 l0 -64 l0 -64 l-64 0 ZM448 128 l0 64 l0 64 l64 0 l64 0 l0 -64 l0 -64 l-64 0 l-64 0 ZM128 128 l-64 0 l-64 0 l0 64 l0 64 l0 64 l0 64 l0 64 l64 0 l64 0 l0 -64 l0 -64 l0 -64 l0 -64 l0 -64 ZM512 320 l-64 0 l0 64 l0 64 l64 0 l64 0 l0 -64 l0 -64 l-64 0 ZM448 448 l-64 0 l-64 0 l-64 0 l-64 0 l-64 0 l0 64 l0 64 l64 0 l64 0 l64 0 l64 0 l64 0 l0 -64 l0 -64 Z" /><glyph glyph-name="d" unicode="d" d="M448 0 l-64 0 l-64 0 l-64 0 l-64 0 l-64 0 l-64 0 l-64 0 l0 64 l0 64 l0 64 l0 64 l0 64 l0 64 l0 64 l64 0 l64 0 l0 64 l0 64 l64 0 l64 0 l64 0 l64 0 l0 64 l0 64 l0 64 l64 0 l64 0 l0 -64 l0 -64 l0 -64 l0 -64 l0 -64 l0 -64 l0 -64 l0 -64 l0 -64 l0 -64 l0 -64 l0 -64 l-64 0 ZM320 128 l64 0 l0 64 l0 64 l0 64 l0 64 l0 64 l-64 0 l-64 0 l-64 0 l-64 0 l0 -64 l0 -64 l0 -64 l0 -64 l0 -64 l64 0 l64 0 l64 0 Z" /><glyph glyph-name="e" unicode="e" d="M448 0 l-64 0 l-64 0 l-64 0 l-64 0 l-64 0 l0 64 l0 64 l64 0 l64 0 l64 0 l64 0 l0 64 l64 0 l64 0 l0 -64 l0 -64 l0 -64 l-64 0 ZM128 128 l-64 0 l-64 0 l0 64 l0 64 l0 64 l0 64 l0 64 l64 0 l64 0 l0 64 l0 64 l64 0 l64 0 l64 0 l64 0 l64 0 l64 0 l0 -64 l0 -64 l0 -64 l0 -64 l-64 0 l-64 0 l0 -64 l-64 0 l-64 0 l-64 0 l-64 0 l0 -64 l0 -64 ZM320 384 l64 0 l0 64 l-64 0 l-64 0 l-64 0 l-64 0 l0 -64 l64 0 l64 0 l64 0 Z" /><glyph glyph-name="f" unicode="f" d="M192 0 l-64 0 l0 64 l0 64 l0 64 l0 64 l0 64 l0 64 l0 64 l-64 0 l-64 0 l0 64 l0 64 l64 0 l64 0 l0 64 l0 64 l0 64 l64 0 l64 0 l64 0 l64 0 l64 0 l0 -64 l0 -64 l-64 0 l-64 0 l-64 0 l0 -64 l64 0 l64 0 l64 0 l64 0 l0 -64 l0 -64 l-64 0 l-64 0 l-64 0 l-64 0 l0 -64 l0 -64 l0 -64 l0 -64 l0 -64 l0 -64 l0 -64 l-64 0 Z" /><glyph glyph-name="g" unicode="g" d="M320 -256 l-64 0 l-64 0 l-64 0 l0 64 l0 64 l64 0 l64 0 l64 0 l64 0 l0 -64 l0 -64 l-64 0 ZM384 -128 l0 64 l0 64 l0 64 l0 64 l0 64 l-64 0 l-64 0 l-64 0 l-64 0 l0 64 l0 64 l-64 0 l-64 0 l0 64 l0 64 l64 0 l64 0 l0 64 l0 64 l64 0 l64 0 l64 0 l64 0 l64 0 l64 0 l0 -64 l0 -64 l0 -64 l0 -64 l0 -64 l0 -64 l0 -64 l0 -64 l0 -64 l0 -64 l0 -64 l-64 0 l-64 0 ZM128 -128 l-64 0 l-64 0 l0 64 l0 64 l64 0 l64 0 l0 -64 l0 -64 ZM320 320 l64 0 l0 64 l0 64 l-64 0 l-64 0 l-64 0 l-64 0 l0 -64 l0 -64 l64 0 l64 0 l64 0 Z" /><glyph glyph-name="h" unicode="h" d="M448 0 l-64 0 l0 64 l0 64 l0 64 l0 64 l0 64 l0 64 l64 0 l64 0 l0 -64 l0 -64 l0 -64 l0 -64 l0 -64 l0 -64 l-64 0 ZM64 0 l-64 0 l0 64 l0 64 l0 64 l0 64 l0 64 l0 64 l0 64 l0 64 l0 64 l0 64 l0 64 l0 64 l64 0 l64 0 l0 -64 l0 -64 l0 -64 l0 -64 l0 -64 l0 -64 l64 0 l64 0 l0 -64 l0 -64 l-64 0 l-64 0 l0 -64 l0 -64 l0 -64 l0 -64 l-64 0 ZM384 384 l-64 0 l-64 0 l0 64 l0 64 l64 0 l64 0 l0 -64 l0 -64 Z" /><glyph glyph-name="i" unicode="i" d="M64 0 l-64 0 l0 64 l0 64 l0 64 l0 64 l0 64 l0 64 l0 64 l0 64 l0 64 l64 0 l64 0 l0 -64 l0 -64 l0 -64 l0 -64 l0 -64 l0 -64 l0 -64 l0 -64 l0 -64 l-64 0 ZM64 640 l-64 0 l0 64 l0 64 l64 0 l64 0 l0 -64 l0 -64 l-64 0 Z" /><glyph glyph-name="j" unicode="j" d="M256 -128 l-64 0 l-64 0 l0 64 l0 64 l64 0 l64 0 l64 0 l0 -64 l0 -64 l-64 0 ZM320 0 l0 64 l0 64 l0 64 l0 64 l0 64 l0 64 l0 64 l64 0 l64 0 l0 -64 l0 -64 l0 -64 l0 -64 l0 -64 l0 -64 l0 -64 l-64 0 l-64 0 ZM128 0 l-64 0 l-64 0 l0 64 l0 64 l64 0 l64 0 l0 -64 l0 -64 ZM384 512 l-64 0 l0 64 l0 64 l64 0 l64 0 l0 -64 l0 -64 l-64 0 Z" /><glyph glyph-name="k" unicode="k" d="M448 0 l-64 0 l0 64 l0 64 l64 0 l64 0 l0 -64 l0 -64 l-64 0 ZM64 0 l-64 0 l0 64 l0 64 l0 64 l0 64 l0 64 l0 64 l0 64 l0 64 l0 64 l0 64 l0 64 l0 64 l64 0 l64 0 l0 -64 l0 -64 l0 -64 l0 -64 l0 -64 l0 -64 l64 0 l64 0 l0 -64 l0 -64 l64 0 l64 0 l0 -64 l0 -64 l-64 0 l-64 0 l0 64 l0 64 l-64 0 l-64 0 l0 -64 l0 -64 l0 -64 l0 -64 l-64 0 ZM256 384 l0 64 l0 64 l64 0 l64 0 l0 -64 l0 -64 l-64 0 l-64 0 ZM384 512 l0 64 l0 64 l64 0 l64 0 l0 -64 l0 -64 l-64 0 l-64 0 Z" /><glyph glyph-name="l" unicode="l" d="M64 0 l-64 0 l0 64 l0 64 l0 64 l0 64 l0 64 l0 64 l0 64 l0 64 l0 64 l0 64 l0 64 l0 64 l64 0 l64 0 l0 -64 l0 -64 l0 -64 l0 -64 l0 -64 l0 -64 l0 -64 l0 -64 l0 -64 l0 -64 l0 -64 l0 -64 l-64 0 Z" /><glyph glyph-name="m" unicode="m" d="M832 0 l-64 0 l0 64 l0 64 l0 64 l0 64 l0 64 l0 64 l0 64 l64 0 l64 0 l0 -64 l0 -64 l0 -64 l0 -64 l0 -64 l0 -64 l0 -64 l-64 0 ZM448 0 l-64 0 l0 64 l0 64 l0 64 l0 64 l0 64 l0 64 l0 64 l64 0 l64 0 l0 -64 l0 -64 l0 -64 l0 -64 l0 -64 l0 -64 l0 -64 l-64 0 ZM64 0 l-64 0 l0 64 l0 64 l0 64 l0 64 l0 64 l0 64 l0 64 l0 64 l0 64 l64 0 l64 0 l64 0 l64 0 l64 0 l64 0 l0 -64 l0 -64 l-64 0 l-64 0 l-64 0 l-64 0 l0 -64 l0 -64 l0 -64 l0 -64 l0 -64 l0 -64 l0 -64 l-64 0 ZM768 448 l-64 0 l-64 0 l-64 0 l-64 0 l0 64 l0 64 l64 0 l64 0 l64 0 l64 0 l0 -64 l0 -64 Z" /><glyph glyph-name="n" unicode="n" d="M512 0 l-64 0 l0 64 l0 64 l0 64 l0 64 l0 64 l0 64 l0 64 l64 0 l64 0 l0 -64 l0 -64 l0 -64 l0 -64 l0 -64 l0 -64 l0 -64 l-64 0 ZM64 0 l-64 0 l0 64 l0 64 l0 64 l0 64 l0 64 l0 64 l0 64 l0 64 l0 64 l64 0 l64 0 l64 0 l64 0 l64 0 l64 0 l64 0 l0 -64 l0 -64 l-64 0 l-64 0 l-64 0 l-64 0 l-64 0 l0 -64 l0 -64 l0 -64 l0 -64 l0 -64 l0 -64 l0 -64 l-64 0 Z" /><glyph glyph-name="o" unicode="o" d="M320 0 l-64 0 l-64 0 l-64 0 l0 64 l0 64 l64 0 l64 0 l64 0 l64 0 l0 -64 l0 -64 l-64 0 ZM384 128 l0 64 l0 64 l0 64 l0 64 l0 64 l64 0 l64 0 l0 -64 l0 -64 l0 -64 l0 -64 l0 -64 l-64 0 l-64 0 ZM128 128 l-64 0 l-64 0 l0 64 l0 64 l0 64 l0 64 l0 64 l64 0 l64 0 l0 -64 l0 -64 l0 -64 l0 -64 l0 -64 ZM384 448 l-64 0 l-64 0 l-64 0 l-64 0 l0 64 l0 64 l64 0 l64 0 l64 0 l64 0 l0 -64 l0 -64 Z" /><glyph glyph-name="p" unicode="p" d="M64 -192 l-64 0 l0 64 l0 64 l0 64 l0 64 l0 64 l0 64 l0 64 l0 64 l0 64 l0 64 l0 64 l0 64 l64 0 l64 0 l0 -64 l0 -64 l64 0 l64 0 l0 -64 l0 -64 l-64 0 l-64 0 l0 -64 l0 -64 l64 0 l64 0 l64 0 l64 0 l64 0 l0 -64 l0 -64 l-64 0 l-64 0 l-64 0 l-64 0 l-64 0 l0 -64 l0 -64 l0 -64 l0 -64 l-64 0 ZM448 192 l0 64 l0 64 l0 64 l0 64 l64 0 l64 0 l0 -64 l0 -64 l0 -64 l0 -64 l-64 0 l-64 0 ZM448 448 l-64 0 l-64 0 l-64 0 l0 64 l0 64 l64 0 l64 0 l64 0 l0 -64 l0 -64 Z" /><glyph glyph-name="q" unicode="q" d="M448 -192 l-64 0 l0 64 l0 64 l0 64 l-64 0 l-64 0 l-64 0 l-64 0 l0 64 l0 64 l-64 0 l-64 0 l0 64 l0 64 l0 64 l0 64 l0 64 l64 0 l64 0 l0 64 l0 64 l64 0 l64 0 l64 0 l0 -64 l64 0 l0 64 l64 0 l64 0 l0 -64 l0 -64 l0 -64 l0 -64 l0 -64 l0 -64 l0 -64 l0 -64 l0 -64 l0 -64 l0 -64 l0 -64 l-64 0 ZM320 128 l64 0 l0 64 l0 64 l0 64 l0 64 l-64 0 l0 64 l-64 0 l-64 0 l-64 0 l0 -64 l0 -64 l0 -64 l0 -64 l0 -64 l64 0 l64 0 l64 0 Z" /><glyph glyph-name="r" unicode="r" d="M384 384 l0 64 l-64 0 l-64 0 l-64 0 l0 -64 l-64 0 l0 -64 l0 -64 l0 -64 l0 -64 l0 -64 l0 -64 l-64 0 l-64 0 l0 64 l0 64 l0 64 l0 64 l0 64 l0 64 l0 64 l0 64 l0 64 l64 0 l64 0 l0 -64 l64 0 l0 64 l64 0 l64 0 l64 0 l0 -64 l64 0 l0 -64 l0 -64 l-64 0 Z" /><glyph glyph-name="s" unicode="s" d="M256 0 l-64 0 l-64 0 l-64 0 l-64 0 l0 64 l0 64 l64 0 l64 0 l64 0 l64 0 l64 0 l0 -64 l0 -64 l-64 0 ZM320 128 l0 64 l0 64 l64 0 l64 0 l0 -64 l0 -64 l-64 0 l-64 0 ZM320 256 l-64 0 l-64 0 l-64 0 l0 64 l0 64 l64 0 l64 0 l64 0 l0 -64 l0 -64 ZM128 384 l-64 0 l-64 0 l0 64 l0 64 l64 0 l64 0 l0 -64 l0 -64 ZM384 512 l-64 0 l-64 0 l-64 0 l-64 0 l0 64 l0 64 l64 0 l64 0 l64 0 l64 0 l64 0 l0 -64 l0 -64 l-64 0 Z" /><glyph glyph-name="t" unicode="t" d="M256 0 l-64 0 l0 64 l0 64 l64 0 l64 0 l0 -64 l0 -64 l-64 0 ZM192 128 l-64 0 l-64 0 l0 64 l0 64 l0 64 l0 64 l0 64 l-64 0 l0 64 l0 64 l64 0 l0 64 l0 64 l64 0 l64 0 l0 -64 l0 -64 l64 0 l0 -64 l0 -64 l-64 0 l0 -64 l0 -64 l0 -64 l0 -64 l0 -64 Z" /><glyph glyph-name="u" unicode="u" d="M448 0 l-64 0 l-64 0 l-64 0 l-64 0 l-64 0 l0 64 l0 64 l64 0 l64 0 l64 0 l64 0 l0 64 l0 64 l0 64 l0 64 l0 64 l0 64 l0 64 l64 0 l64 0 l0 -64 l0 -64 l0 -64 l0 -64 l0 -64 l0 -64 l0 -64 l0 -64 l0 -64 l-64 0 ZM128 128 l-64 0 l-64 0 l0 64 l0 64 l0 64 l0 64 l0 64 l0 64 l0 64 l64 0 l64 0 l0 -64 l0 -64 l0 -64 l0 -64 l0 -64 l0 -64 l0 -64 Z" /><glyph glyph-name="v" unicode="v" d="M320 0 l-64 0 l0 64 l0 64 l64 0 l64 0 l0 -64 l0 -64 l-64 0 ZM384 128 l0 64 l0 64 l64 0 l64 0 l0 -64 l0 -64 l-64 0 l-64 0 ZM256 128 l-64 0 l-64 0 l0 64 l0 64 l64 0 l64 0 l0 -64 l0 -64 ZM512 256 l0 64 l0 64 l0 64 l64 0 l64 0 l0 -64 l0 -64 l0 -64 l-64 0 l-64 0 ZM128 256 l-64 0 l-64 0 l0 64 l0 64 l0 64 l64 0 l64 0 l0 -64 l0 -64 l0 -64 Z" /><glyph glyph-name="w" unicode="w" d="M640 0 l-64 0 l-64 0 l-64 0 l-64 0 l-64 0 l-64 0 l-64 0 l-64 0 l0 64 l0 64 l64 0 l64 0 l64 0 l0 64 l0 64 l0 64 l64 0 l64 0 l0 -64 l0 -64 l0 -64 l64 0 l64 0 l0 64 l0 64 l0 64 l0 64 l0 64 l0 64 l64 0 l64 0 l0 -64 l0 -64 l0 -64 l0 -64 l0 -64 l0 -64 l0 -64 l0 -64 l-64 0 ZM128 128 l-64 0 l-64 0 l0 64 l0 64 l0 64 l0 64 l0 64 l0 64 l64 0 l64 0 l0 -64 l0 -64 l0 -64 l0 -64 l0 -64 l0 -64 Z" /><glyph glyph-name="x" unicode="x" d="M576 0 l-64 0 l0 64 l0 64 l64 0 l64 0 l0 -64 l0 -64 l-64 0 ZM64 0 l-64 0 l0 64 l0 64 l64 0 l64 0 l0 -64 l0 -64 l-64 0 ZM512 128 l-64 0 l-64 0 l0 64 l0 64 l64 0 l64 0 l0 -64 l0 -64 ZM128 128 l0 64 l0 64 l64 0 l64 0 l0 -64 l0 -64 l-64 0 l-64 0 ZM384 256 l-64 0 l-64 0 l0 64 l0 64 l64 0 l64 0 l0 -64 l0 -64 ZM384 384 l0 64 l0 64 l64 0 l64 0 l0 -64 l0 -64 l-64 0 l-64 0 ZM256 384 l-64 0 l-64 0 l0 64 l0 64 l64 0 l64 0 l0 -64 l0 -64 ZM512 512 l0 64 l0 64 l64 0 l64 0 l0 -64 l0 -64 l-64 0 l-64 0 ZM128 512 l-64 0 l-64 0 l0 64 l0 64 l64 0 l64 0 l0 -64 l0 -64 Z" /><glyph glyph-name="y" unicode="y" d="M320 -128 l-64 0 l-64 0 l-64 0 l-64 0 l-64 0 l0 64 l0 64 l64 0 l64 0 l64 0 l64 0 l64 0 l64 0 l0 -64 l0 -64 l-64 0 ZM384 0 l0 64 l0 64 l-64 0 l-64 0 l-64 0 l-64 0 l0 64 l0 64 l64 0 l64 0 l64 0 l64 0 l0 64 l0 64 l0 64 l0 64 l0 64 l64 0 l64 0 l0 -64 l0 -64 l0 -64 l0 -64 l0 -64 l0 -64 l0 -64 l0 -64 l0 -64 l-64 0 l-64 0 ZM128 256 l-64 0 l-64 0 l0 64 l0 64 l0 64 l0 64 l0 64 l64 0 l64 0 l0 -64 l0 -64 l0 -64 l0 -64 l0 -64 Z" /><glyph glyph-name="z" unicode="z" d="M448 0 l-64 0 l-64 0 l-64 0 l-64 0 l-64 0 l-64 0 l-64 0 l0 64 l0 64 l64 0 l0 64 l0 64 l64 0 l64 0 l0 -64 l0 -64 l64 0 l64 0 l64 0 l64 0 l64 0 l0 -64 l0 -64 l-64 0 ZM192 256 l0 64 l0 64 l64 0 l64 0 l0 -64 l0 -64 l-64 0 l-64 0 ZM320 384 l0 64 l0 64 l-64 0 l-64 0 l-64 0 l-64 0 l-64 0 l0 64 l0 64 l64 0 l64 0 l64 0 l64 0 l64 0 l64 0 l64 0 l64 0 l0 -64 l0 -64 l-64 0 l0 -64 l0 -64 l-64 0 l-64 0 Z" /><glyph glyph-name="braceleft" unicode="{" d="M256 -256 l-64 0 l0 64 l0 64 l64 0 l64 0 l0 -64 l0 -64 l-64 0 ZM192 -128 l-64 0 l-64 0 l0 64 l0 64 l0 64 l0 64 l0 64 l0 64 l-64 0 l0 64 l64 0 l0 64 l0 64 l0 64 l0 64 l0 64 l64 0 l64 0 l0 -64 l0 -64 l0 -64 l0 -64 l0 -64 l-64 0 l0 -64 l64 0 l0 -64 l0 -64 l0 -64 l0 -64 l0 -64 l0 -64 ZM192 640 l0 64 l0 64 l64 0 l64 0 l0 -64 l0 -64 l-64 0 l-64 0 Z" /><glyph glyph-name="bar" unicode="|" d="M64 -256 l-64 0 l0 64 l0 64 l0 64 l0 64 l0 64 l0 64 l0 64 l0 64 l0 64 l0 64 l0 64 l0 64 l0 64 l0 64 l0 64 l0 64 l64 0 l64 0 l0 -64 l0 -64 l0 -64 l0 -64 l0 -64 l0 -64 l0 -64 l0 -64 l0 -64 l0 -64 l0 -64 l0 -64 l0 -64 l0 -64 l0 -64 l0 -64 l-64 0 Z" /><glyph glyph-name="braceright" unicode="}" d="M64 -256 l-64 0 l0 64 l0 64 l64 0 l64 0 l0 -64 l0 -64 l-64 0 ZM128 -128 l0 64 l0 64 l0 64 l0 64 l0 64 l0 64 l64 0 l0 64 l-64 0 l0 64 l0 64 l0 64 l0 64 l0 64 l64 0 l64 0 l0 -64 l0 -64 l0 -64 l0 -64 l0 -64 l64 0 l0 -64 l-64 0 l0 -64 l0 -64 l0 -64 l0 -64 l0 -64 l0 -64 l-64 0 l-64 0 ZM128 640 l-64 0 l-64 0 l0 64 l0 64 l64 0 l64 0 l0 -64 l0 -64 Z" /><glyph glyph-name="asciitilde" unicode="~" d="M448 384 l64 0 l0 -64 l-64 0 l-64 0 l-64 0 l0 64 l64 0 l64 0 ZM64 384 l64 0 l0 -64 l-64 0 l-64 0 l0 64 l64 0 ZM576 448 l64 0 l0 -64 l-64 0 l-64 0 l0 64 l64 0 ZM320 384 l-64 0 l-64 0 l-64 0 l0 64 l64 0 l64 0 l64 0 l0 -64 Z" /><glyph glyph-name="uni00A0" unicode=" Ê" d="" /><glyph glyph-name="exclamdown" unicode="¡Á" d="M256 -192 l-64 0 l-64 0 l-64 0 l0 64 l64 0 l0 64 l0 64 l0 64 l0 64 l0 64 l0 64 l0 64 l64 0 l64 0 l0 -64 l0 -64 l0 -64 l0 -64 l0 -64 l0 -64 l0 -64 l64 0 l0 -64 l-64 0 ZM192 384 l-64 0 l0 64 l0 64 l64 0 l64 0 l0 -64 l0 -64 l-64 0 Z" /><glyph glyph-name="cent" unicode="¢" d="M0 -192 l0 64 l0 64 l64 0 l0 -64 l0 -64 l-64 0 ZM64 -64 l0 64 l64 0 l0 -64 l-64 0 ZM320 0 l-64 0 l-64 0 l-64 0 l0 64 l0 64 l-64 0 l-64 0 l0 64 l0 64 l0 64 l0 64 l0 64 l0 64 l64 0 l64 0 l0 -64 l0 -64 l0 -64 l0 -64 l0 -64 l64 0 l0 -64 l64 0 l64 0 l64 0 l0 -64 l0 -64 l-64 0 ZM384 128 l0 64 l0 64 l64 0 l64 0 l0 -64 l0 -64 l-64 0 l-64 0 ZM192 192 l0 64 l0 64 l64 0 l0 -64 l0 -64 l-64 0 ZM256 320 l0 64 l64 0 l0 -64 l-64 0 ZM448 384 l-64 0 l-64 0 l0 64 l0 64 l-64 0 l-64 0 l-64 0 l0 64 l0 64 l64 0 l64 0 l64 0 l64 0 l0 -64 l0 -64 l64 0 l64 0 l0 -64 l0 -64 l-64 0 ZM384 640 l0 64 l0 64 l64 0 l0 -64 l0 -64 l-64 0 Z" /><glyph glyph-name="sterling" unicode="£" d="M448 0 l-64 0 l-64 0 l-64 0 l-64 0 l-64 0 l-64 0 l-64 0 l0 64 l0 64 l64 0 l0 64 l64 0 l0 64 l0 64 l-64 0 l-64 0 l0 64 l0 64 l64 0 l0 64 l0 64 l0 64 l64 0 l0 64 l64 0 l0 64 l64 0 l64 0 l64 0 l0 -64 l64 0 l0 -64 l64 0 l0 -64 l0 -64 l-64 0 l-64 0 l0 64 l0 64 l-64 0 l-64 0 l-64 0 l0 -64 l0 -64 l0 -64 l64 0 l64 0 l64 0 l0 -64 l0 -64 l-64 0 l-64 0 l0 -64 l0 -64 l-64 0 l0 -64 l64 0 l64 0 l64 0 l64 0 l64 0 l0 -64 l0 -64 l-64 0 Z" /><glyph glyph-name="currency" unicode="¤" d="M512 64 l0 64 l64 0 l0 -64 l-64 0 ZM0 64 l0 64 l64 0 l0 -64 l-64 0 ZM512 128 l-64 0 l0 64 l64 0 l0 -64 ZM320 128 l-64 0 l-64 0 l0 64 l-64 0 l0 -64 l-64 0 l0 64 l64 0 l0 64 l-64 0 l0 64 l0 64 l0 64 l64 0 l0 64 l64 0 l0 64 l64 0 l64 0 l64 0 l0 -64 l64 0 l0 -64 l64 0 l0 -64 l0 -64 l0 -64 l-64 0 l0 -64 l-64 0 l0 -64 l-64 0 ZM320 256 l64 0 l0 64 l0 64 l0 64 l-64 0 l-64 0 l-64 0 l0 -64 l0 -64 l0 -64 l64 0 l64 0 ZM448 512 l0 64 l64 0 l0 -64 l-64 0 ZM128 512 l-64 0 l0 64 l64 0 l0 -64 ZM512 576 l0 64 l64 0 l0 -64 l-64 0 ZM64 576 l-64 0 l0 64 l64 0 l0 -64 Z" /><glyph glyph-name="yen" unicode="¥´" d="M256 -64 l0 64 l0 64 l-64 0 l-64 0 l-64 0 l-64 0 l0 64 l0 64 l64 0 l64 0 l64 0 l64 0 l0 64 l-64 0 l-64 0 l-64 0 l-64 0 l0 64 l0 64 l64 0 l64 0 l64 0 l0 64 l64 0 l64 0 l64 0 l0 -64 l64 0 l64 0 l64 0 l0 -64 l0 -64 l-64 0 l-64 0 l-64 0 l-64 0 l0 -64 l64 0 l64 0 l64 0 l64 0 l0 -64 l0 -64 l-64 0 l-64 0 l-64 0 l-64 0 l0 -64 l0 -64 l-64 0 ZM384 448 l0 64 l64 0 l0 -64 l-64 0 ZM192 448 l-64 0 l0 64 l64 0 l0 -64 ZM448 512 l0 64 l64 0 l0 -64 l-64 0 ZM128 512 l-64 0 l0 64 l64 0 l0 -64 ZM512 576 l0 64 l0 64 l64 0 l0 -64 l0 -64 l-64 0 ZM64 576 l-64 0 l0 64 l0 64 l64 0 l0 -64 l0 -64 Z" /><glyph glyph-name="brokenbar" unicode="¦" d="M128 -256 l-64 0 l0 64 l0 64 l0 64 l0 64 l0 64 l0 64 l0 64 l64 0 l64 0 l0 -64 l0 -64 l0 -64 l0 -64 l0 -64 l0 -64 l0 -64 l-64 0 ZM128 320 l-64 0 l0 64 l0 64 l0 64 l0 64 l0 64 l0 64 l0 64 l64 0 l64 0 l0 -64 l0 -64 l0 -64 l0 -64 l0 -64 l0 -64 l0 -64 l-64 0 Z" /><glyph glyph-name="section" unicode="§" d="M384 576 l0 64 l64 0 l0 -64 l-64 0 ZM320 -128 l64 0 l0 -64 l-64 0 l-64 0 l-64 0 l0 64 l64 0 l64 0 ZM384 -128 l0 64 l0 64 l0 64 l64 0 l0 -64 l0 -64 l0 -64 l-64 0 ZM192 -128 l-64 0 l0 64 l64 0 l0 -64 ZM128 -64 l-64 0 l0 64 l64 0 l0 -64 ZM384 64 l-64 0 l0 64 l64 0 l0 -64 ZM384 128 l0 64 l64 0 l0 -64 l-64 0 ZM320 128 l-64 0 l-64 0 l0 64 l64 0 l64 0 l0 -64 ZM448 192 l0 64 l64 0 l0 -64 l-64 0 ZM192 192 l-64 0 l0 64 l64 0 l0 -64 ZM448 256 l-64 0 l0 64 l64 0 l0 -64 ZM128 256 l-64 0 l0 64 l0 64 l64 0 l0 -64 l0 -64 ZM384 320 l-64 0 l0 64 l64 0 l0 -64 ZM320 384 l-64 0 l0 64 l64 0 l0 -64 ZM128 384 l0 64 l64 0 l0 -64 l-64 0 ZM256 448 l-64 0 l0 64 l64 0 l0 -64 ZM192 512 l-64 0 l0 64 l0 64 l64 0 l0 -64 l0 -64 ZM384 640 l-64 0 l-64 0 l-64 0 l0 64 l64 0 l64 0 l64 0 l0 -64 Z" /><glyph glyph-name="dieresis" unicode="¨¬" d="M256 640 l-64 0 l0 64 l0 64 l64 0 l64 0 l0 -64 l0 -64 l-64 0 ZM64 640 l-64 0 l0 64 l0 64 l64 0 l64 0 l0 -64 l0 -64 l-64 0 Z" /><glyph glyph-name="copyright" unicode="©" d="M448 448 l0 64 l64 0 l0 -64 l-64 0 ZM448 64 l64 0 l0 -64 l-64 0 l-64 0 l-64 0 l-64 0 l0 64 l64 0 l64 0 l64 0 ZM512 64 l0 64 l64 0 l0 -64 l-64 0 ZM256 64 l-64 0 l0 64 l64 0 l0 -64 ZM576 128 l0 64 l64 0 l0 -64 l-64 0 ZM384 192 l64 0 l0 -64 l-64 0 l-64 0 l0 64 l64 0 ZM192 128 l-64 0 l0 64 l64 0 l0 -64 ZM640 192 l0 64 l64 0 l0 -64 l-64 0 ZM448 192 l0 64 l64 0 l0 -64 l-64 0 ZM320 192 l-64 0 l0 64 l64 0 l0 -64 ZM128 192 l-64 0 l0 64 l64 0 l0 -64 ZM704 256 l0 64 l0 64 l0 64 l0 64 l64 0 l0 -64 l0 -64 l0 -64 l0 -64 l-64 0 ZM256 256 l-64 0 l0 64 l0 64 l0 64 l64 0 l0 -64 l0 -64 l0 -64 ZM64 256 l-64 0 l0 64 l0 64 l0 64 l0 64 l64 0 l0 -64 l0 -64 l0 -64 l0 -64 ZM256 448 l0 64 l64 0 l0 -64 l-64 0 ZM704 512 l-64 0 l0 64 l64 0 l0 -64 ZM448 512 l-64 0 l-64 0 l0 64 l64 0 l64 0 l0 -64 ZM64 512 l0 64 l64 0 l0 -64 l-64 0 ZM640 576 l-64 0 l0 64 l64 0 l0 -64 ZM128 576 l0 64 l64 0 l0 -64 l-64 0 ZM576 640 l-64 0 l0 64 l64 0 l0 -64 ZM192 640 l0 64 l64 0 l0 -64 l-64 0 ZM512 704 l-64 0 l-64 0 l-64 0 l-64 0 l0 64 l64 0 l64 0 l64 0 l64 0 l0 -64 Z" /><glyph glyph-name="Euro" unicode="Û&#x20ac;" d="M384 -64 l-64 0 l-64 0 l0 64 l-64 0 l0 64 l-64 0 l0 64 l-64 0 l0 64 l-64 0 l0 64 l0 64 l64 0 l0 64 l-64 0 l0 64 l0 64 l64 0 l0 64 l0 64 l64 0 l0 64 l64 0 l0 64 l64 0 l64 0 l64 0 l64 0 l0 -64 l64 0 l64 0 l0 -64 l0 -64 l-64 0 l-64 0 l0 64 l-64 0 l-64 0 l-64 0 l0 -64 l-64 0 l0 -64 l64 0 l64 0 l64 0 l64 0 l64 0 l0 -64 l0 -64 l-64 0 l-64 0 l-64 0 l-64 0 l-64 0 l0 -64 l64 0 l64 0 l64 0 l64 0 l0 -64 l0 -64 l-64 0 l-64 0 l-64 0 l-64 0 l0 -64 l64 0 l0 -64 l64 0 l64 0 l64 0 l0 64 l64 0 l0 -64 l0 -64 l-64 0 l0 -64 l-64 0 Z" /><glyph glyph-name="uni3000" unicode="&#x3000;" d="" /></font>
</defs>
</svg>
